<svg width="19" height="13" viewBox="0 0 19 13" fill="none" xmlns="http://www.w3.org/2000/svg">
<path d="M11.6211 4.5667L15.3736 2.37166C15.5709 2.25208 15.7896 2.17346 16.0171 2.14039C16.2447 2.10732 16.4764 2.12046 16.6989 2.17903C16.9213 2.23761 17.1301 2.34046 17.3129 2.48159C17.4958 2.62272 17.6491 2.79931 17.764 3.00109C17.8789 3.20286 17.953 3.42578 17.9821 3.65687C18.0111 3.88795 17.9946 4.12259 17.9333 4.34712C17.872 4.57165 17.7673 4.78157 17.6252 4.96468C17.4831 5.14778 17.3064 5.30041 17.1056 5.41366L5.85042 12L1 8.75433L3.25091 7.43669L5.61823 8.07999L7.86914 6.76235L3.33607 2.31702L5.58759 1L11.6211 4.5667Z" stroke="#12C2E9" stroke-linecap="round" stroke-linejoin="round"/>
</svg>
