<svg width="10" height="11" viewBox="0 0 10 11" fill="none" xmlns="http://www.w3.org/2000/svg">
<path d="M7.95324 1.48777L0.181844 9.70198C0.0709487 9.8192 0.008649 9.97818 0.00864898 10.1439C0.00864896 10.3097 0.0709489 10.4687 0.181844 10.5859C0.29274 10.7031 0.443147 10.769 0.599976 10.769C0.756806 10.769 0.907212 10.7031 1.01811 10.5859L8.7895 2.37169L8.78867 8.81807C8.78867 8.98405 8.85104 9.14322 8.96208 9.26059C9.07312 9.37795 9.22371 9.44388 9.38074 9.44388C9.53777 9.44388 9.68836 9.37795 9.7994 9.26059C9.91044 9.14322 9.97282 8.98405 9.97282 8.81807L9.97281 0.862847C9.97291 0.780635 9.95767 0.699209 9.92795 0.623236C9.89823 0.547263 9.85462 0.478233 9.79962 0.4201C9.74462 0.361968 9.67931 0.315875 9.60743 0.284462C9.53556 0.253048 9.45852 0.236932 9.38074 0.237036L1.85437 0.237036C1.69734 0.237036 1.54675 0.302969 1.43571 0.420332C1.32468 0.537694 1.2623 0.696872 1.2623 0.862847C1.2623 1.02882 1.32468 1.188 1.43571 1.30536C1.54675 1.42272 1.69734 1.48866 1.85437 1.48866L7.95324 1.48777Z" fill="white"/>
</svg>
