<svg width="20" height="20" viewBox="0 0 20 20" fill="none" xmlns="http://www.w3.org/2000/svg">
<path d="M14.7413 9.37579H3.125C2.95924 9.37579 2.80027 9.44164 2.68306 9.55885C2.56585 9.67606 2.5 9.83503 2.5 10.0008C2.5 10.1665 2.56585 10.3255 2.68306 10.4427C2.80027 10.5599 2.95924 10.6258 3.125 10.6258H14.7413L10.1825 15.1833C10.0651 15.3006 9.99921 15.4598 9.99921 15.6258C9.99921 15.7918 10.0651 15.9509 10.1825 16.0683C10.2999 16.1856 10.459 16.2516 10.625 16.2516C10.791 16.2516 10.9501 16.1856 11.0675 16.0683L16.6925 10.4433C16.7507 10.3852 16.7969 10.3163 16.8284 10.2403C16.8599 10.1644 16.8761 10.083 16.8761 10.0008C16.8761 9.91858 16.8599 9.83718 16.8284 9.76125C16.7969 9.68532 16.7507 9.61635 16.6925 9.55829L11.0675 3.93329C10.9501 3.81593 10.791 3.75 10.625 3.75C10.459 3.75 10.2999 3.81593 10.1825 3.93329C10.0651 4.05065 9.99921 4.20982 9.99921 4.37579C9.99921 4.54176 10.0651 4.70093 10.1825 4.81829L14.7413 9.37579Z" fill="white"/>
</svg>
