<svg width="25" height="21" viewBox="0 0 25 21" fill="none" xmlns="http://www.w3.org/2000/svg">
<path d="M13.1046 19.75H3.12742C2.49689 19.75 1.89218 19.4998 1.44633 19.0544C1.00048 18.609 0.75 18.0049 0.75 17.375M0.75 17.375V3.125C0.75 2.49511 1.00048 1.89102 1.44633 1.44562C1.89218 1.00022 2.49689 0.75 3.12742 0.75H17.392V8.66667M0.75 17.375C0.75 16.7451 1.00048 16.141 1.44633 15.6956C1.89218 15.2502 2.49689 15 3.12742 15H9.07098M19.0405 12.4961L21.8127 10.913C21.9584 10.8268 22.12 10.7701 22.2881 10.7462C22.4562 10.7224 22.6274 10.7319 22.7917 10.7741C22.9561 10.8163 23.1103 10.8905 23.2454 10.9923C23.3805 11.0941 23.4938 11.2215 23.5786 11.367C23.6635 11.5125 23.7183 11.6733 23.7397 11.8399C23.7612 12.0066 23.7489 12.1758 23.7037 12.3378C23.6584 12.4997 23.581 12.6511 23.4761 12.7832C23.3711 12.9152 23.2406 13.0253 23.0922 13.107L14.7775 17.8571L11.1942 15.5163L12.8571 14.566L14.6059 15.03L16.2688 14.0797L12.92 10.8736L14.5833 9.92376L19.0405 12.4961Z" stroke="white" stroke-width="1.5" stroke-linecap="round" stroke-linejoin="round"/>
</svg>
