<svg width="32" height="32" viewBox="0 0 32 32" fill="none" xmlns="http://www.w3.org/2000/svg">
<path d="M12.3333 25.08C13.0697 25.08 13.6667 24.483 13.6667 23.7467C13.6667 23.0103 13.0697 22.4133 12.3333 22.4133C11.597 22.4133 11 23.0103 11 23.7467C11 24.483 11.597 25.08 12.3333 25.08Z" fill="white" fill-opacity="0.8"/>
<path d="M23 25.08C23.7364 25.08 24.3334 24.483 24.3334 23.7467C24.3334 23.0103 23.7364 22.4133 23 22.4133C22.2636 22.4133 21.6667 23.0103 21.6667 23.7467C21.6667 24.483 22.2636 25.08 23 25.08Z" fill="white" fill-opacity="0.8"/>
<path d="M4.71997 6.92H7.02664C7.52333 6.92049 8.0023 7.10457 8.37149 7.43683C8.74067 7.7691 8.97401 8.22611 9.02664 8.72L9.99997 18.4533C10.0468 18.9495 10.2784 19.41 10.6489 19.7435C11.0193 20.0769 11.5016 20.2589 12 20.2533H24.4C24.8911 20.2532 25.365 20.0724 25.7314 19.7454C26.0977 19.4184 26.331 18.9679 26.3866 18.48L27.28 10.48C27.3116 10.2034 27.2851 9.92325 27.2022 9.65747C27.1193 9.39169 26.9819 9.14615 26.7986 8.93655C26.6154 8.72696 26.3904 8.55793 26.1381 8.44028C25.8858 8.32263 25.6116 8.25896 25.3333 8.25333H8.9733" stroke="white" stroke-opacity="0.8" stroke-width="1.5" stroke-linecap="round" stroke-linejoin="round"/>
</svg>
