<svg width="24" height="21" viewBox="0 0 24 21" fill="none" xmlns="http://www.w3.org/2000/svg">
<path fill-rule="evenodd" clip-rule="evenodd" d="M6.74851 0.564819C3.18618 0.564819 0.5 3.35149 0.5 7.04687V14.091C0.5 15.9823 1.19749 17.691 2.46516 18.9033C3.60233 19.9894 5.07753 20.5648 6.73139 20.5648H17.2718C18.9225 20.5648 20.3966 19.9905 21.5348 18.9033C22.8025 17.691 23.5 15.9823 23.5 14.091V7.04687C23.5 3.35149 20.8138 0.564819 17.2515 0.564819H6.74851ZM6.74851 2.10328H17.2515C19.942 2.10328 21.8953 4.18226 21.8953 7.04687V14.091C21.8953 15.571 21.3647 16.893 20.402 17.813C19.5718 18.6079 18.4881 19.0264 17.2686 19.0264H6.74851C6.74637 19.0243 6.73781 19.0264 6.73139 19.0264C5.51079 19.0264 4.42818 18.6079 3.59805 17.813C2.63419 16.893 2.10465 15.571 2.10465 14.091V7.04687C2.10465 4.18226 4.05804 2.10328 6.74851 2.10328ZM5.06256 6.85077C4.78335 7.18 4.83577 7.6641 5.17916 7.93282L9.93321 11.6374C10.5344 12.0949 11.2533 12.3236 11.9711 12.3236C12.6868 12.3236 13.4003 12.0969 13.9973 11.6436L18.7952 7.93487C19.1407 7.6682 19.1942 7.18307 18.9171 6.85282C18.6379 6.52359 18.133 6.47128 17.7885 6.73692L12.9949 10.4415C12.3926 10.899 11.5443 10.899 10.9377 10.4374L6.19223 6.73897C5.84777 6.46923 5.34284 6.52051 5.06256 6.85077Z" fill="white" fill-opacity="0.8"/>
</svg>
