<svg width="16" height="16" viewBox="0 0 16 16" fill="none" xmlns="http://www.w3.org/2000/svg">
<path d="M7.52002 3.79199C7.35426 3.79199 7.19529 3.85784 7.07808 3.97505C6.96087 4.09226 6.89502 4.25123 6.89502 4.41699V8.16699C6.89502 8.33275 6.96087 8.49172 7.07808 8.60893C7.19529 8.72614 7.35426 8.79199 7.52002 8.79199C7.68578 8.79199 7.84475 8.72614 7.96196 8.60893C8.07917 8.49172 8.14502 8.33275 8.14502 8.16699V4.41699C8.14502 4.25123 8.07917 4.09226 7.96196 3.97505C7.84475 3.85784 7.68578 3.79199 7.52002 3.79199ZM8.27002 11.292C8.27002 11.4992 8.18771 11.6979 8.0412 11.8444C7.89468 11.9909 7.69597 12.0732 7.48877 12.0732C7.28157 12.0732 7.08286 11.9909 6.93634 11.8444C6.78983 11.6979 6.70752 11.4992 6.70752 11.292C6.70752 11.0848 6.78983 10.8861 6.93634 10.7396C7.08286 10.5931 7.28157 10.5107 7.48877 10.5107C7.69597 10.5107 7.89468 10.5931 8.0412 10.7396C8.18771 10.8861 8.27002 11.0848 8.27002 11.292Z" fill="#FFC919"/>
<path fill-rule="evenodd" clip-rule="evenodd" d="M0.325249 10.9797L5.0315 1.60469C6.06275 -0.451563 8.97525 -0.451563 10.0127 1.60469L14.719 10.9797C15.6565 12.8547 14.3102 15.0672 12.2315 15.0672H2.794C0.71275 15.0672 -0.637251 12.8547 0.306499 10.9797H0.325249ZM0.883999 11.2603L5.59025 1.88531C6.39025 0.285313 8.65275 0.285313 9.45275 1.88531L14.159 11.2603C14.8965 12.7228 13.8352 14.4416 12.2277 14.4416H2.79025C1.184 14.4416 0.121499 12.7228 0.858999 11.2603H0.883999Z" fill="#FFC919"/>
</svg>
