<svg width="18" height="24" viewBox="0 0 18 24" fill="none" xmlns="http://www.w3.org/2000/svg">
<path d="M11.8333 9.94434C10.9316 9.94434 10.0668 9.56173 9.42917 8.88068C8.79155 8.19963 8.43333 7.27592 8.43333 6.31276V1.47066H3.9C3.29884 1.47066 2.72231 1.72573 2.29722 2.17977C1.87214 2.6338 1.63333 3.24961 1.63333 3.89171V19.6286C1.63333 20.2707 1.87214 20.8865 2.29722 21.3405C2.72231 21.7945 3.29884 22.0496 3.9 22.0496H14.1C14.7012 22.0496 15.2777 21.7945 15.7028 21.3405C16.1279 20.8865 16.3667 20.2707 16.3667 19.6286V9.94434H11.8333ZM9.56667 6.31276C9.56667 6.95487 9.80548 7.57067 10.2306 8.02471C10.6556 8.47874 11.2322 8.73382 11.8333 8.73382H15.902L9.56667 1.96697V6.31276ZM3.9 0.260132H9.56667L17.5 8.73382V19.6286C17.5 20.5917 17.1418 21.5154 16.5042 22.1965C15.8665 22.8775 15.0017 23.2601 14.1 23.2601H3.9C2.99826 23.2601 2.13346 22.8775 1.49584 22.1965C0.858213 21.5154 0.5 20.5917 0.5 19.6286V3.89171C0.5 2.92856 0.858213 2.00485 1.49584 1.3238C2.13346 0.642744 2.99826 0.260132 3.9 0.260132Z" fill="white" fill-opacity="0.8"/>
</svg>
