<svg width="17" height="22" viewBox="0 0 17 22" fill="none" xmlns="http://www.w3.org/2000/svg">
<path d="M16 9.0125V17.25C16 18.2446 15.6049 19.1984 14.9017 19.9017C14.1984 20.6049 13.2446 21 12.25 21H4.75C3.75544 21 2.80161 20.6049 2.09835 19.9017C1.39509 19.1984 1 18.2446 1 17.25V4.75C1 3.75544 1.39509 2.80161 2.09835 2.09835C2.80161 1.39509 3.75544 1 4.75 1H7.9875C8.31543 1.00138 8.62967 1.13157 8.8625 1.3625L15.6375 8.1375C15.8684 8.37033 15.9986 8.68457 16 9.0125Z" stroke="#12C2E9" stroke-width="1.5" stroke-miterlimit="10" stroke-linecap="round"/>
<path d="M8.5 1.6V7.25C8.5 7.58153 8.6317 7.89947 8.86612 8.13389C9.10054 8.36831 9.41848 8.5 9.75 8.5H15.4C15.4489 8.49932 15.4966 8.48428 15.5371 8.45677C15.5775 8.42925 15.609 8.39047 15.6277 8.34522C15.6463 8.29997 15.6512 8.25024 15.6419 8.20221C15.6325 8.15418 15.6093 8.10995 15.575 8.075L8.925 1.425C8.89006 1.39074 8.84583 1.36749 8.79779 1.35813C8.74976 1.34877 8.70004 1.35371 8.65479 1.37235C8.60954 1.39098 8.57075 1.42248 8.54324 1.46295C8.51572 1.50342 8.50069 1.55107 8.5 1.6Z" stroke="#12C2E9" stroke-width="1.5" stroke-linecap="round" stroke-linejoin="round"/>
<path d="M11.625 17.25H5.375" stroke="#12C2E9" stroke-width="1.5" stroke-linecap="round" stroke-linejoin="round"/>
<path d="M9.125 13.5H5.375" stroke="#12C2E9" stroke-width="1.5" stroke-linecap="round" stroke-linejoin="round"/>
</svg>
