<svg width="33" height="40" viewBox="0 0 33 40" fill="none" xmlns="http://www.w3.org/2000/svg">
<path d="M31.1767 13.54V26.4153C31.1767 27.9745 30.5573 29.4698 29.4548 30.5723C28.3523 31.6748 26.857 32.2941 25.2979 32.2941H13.5626C12.7916 32.2941 12.0282 32.1419 11.3162 31.8462C10.6042 31.5505 9.95761 31.1171 9.4135 30.5709C8.86938 30.0247 8.43846 29.3765 8.14546 28.6634C7.85246 27.9502 7.70315 27.1863 7.7061 26.4153V6.85649C7.7061 5.30326 8.32312 3.81364 9.42142 2.71534C10.5197 1.61704 12.0093 1.00002 13.5626 1.00002H18.6367C18.8895 0.998909 19.1401 1.0477 19.3741 1.14359C19.6081 1.23948 19.8209 1.38059 20.0002 1.55884L30.5955 12.1541C30.7795 12.335 30.9256 12.5507 31.0254 12.7887C31.1252 13.0266 31.1766 13.282 31.1767 13.54Z" stroke="white" stroke-opacity="0.8" stroke-width="2" stroke-miterlimit="10" stroke-linecap="round"/>
<path d="M19.4412 1.93848V10.8797C19.4383 11.1369 19.4864 11.3922 19.5828 11.6307C19.6792 11.8693 19.822 12.0863 20.0028 12.2692C20.1837 12.4522 20.3991 12.5974 20.6365 12.6966C20.8739 12.7957 21.1286 12.8467 21.3859 12.8467H30.3271C30.4021 12.841 30.4739 12.8144 30.5346 12.7699C30.5952 12.7254 30.6421 12.6648 30.6701 12.595C30.698 12.5251 30.7058 12.4489 30.6926 12.3749C30.6794 12.3008 30.6457 12.232 30.5953 12.1761L20.1118 1.67024C20.0604 1.60883 19.9909 1.56523 19.9132 1.54568C19.8355 1.52612 19.7537 1.53161 19.6793 1.56136C19.6049 1.59111 19.5419 1.64359 19.4991 1.71131C19.4564 1.77904 19.4361 1.85855 19.4412 1.93848Z" stroke="white" stroke-opacity="0.8" stroke-width="2" stroke-linecap="round" stroke-linejoin="round"/>
<path d="M24.337 26.4155H14.5464" stroke="white" stroke-opacity="0.8" stroke-width="2" stroke-linecap="round" stroke-linejoin="round"/>
<path d="M20.4252 20.5588H14.5464" stroke="white" stroke-opacity="0.8" stroke-width="2" stroke-linecap="round" stroke-linejoin="round"/>
<path d="M24.4706 32.2717V33.1211C24.4706 34.6803 23.8512 36.1756 22.7487 37.2781C21.6462 38.3806 20.1509 38.9999 18.5918 38.9999H6.85647C5.30119 38.994 3.81162 38.372 2.71396 37.2702C1.61629 36.1683 0.999989 34.6764 1 33.1211V13.5623C1.00589 12.0109 1.6248 10.5247 2.72183 9.42764C3.81885 8.33061 5.30505 7.7117 6.85647 7.70581H7.70588" stroke="white" stroke-opacity="0.8" stroke-width="2" stroke-miterlimit="10" stroke-linecap="round"/>
</svg>
