<svg width="15" height="15" viewBox="0 0 15 15" fill="none" xmlns="http://www.w3.org/2000/svg">
<path d="M8.71191 10.4971C8.68255 10.468 8.64289 10.4517 8.60156 10.4517C8.56024 10.4517 8.52058 10.468 8.49121 10.4971L6.22168 12.7666C5.1709 13.8174 3.39746 13.9287 2.2373 12.7666C1.0752 11.6045 1.18652 9.83301 2.2373 8.78223L4.50684 6.5127C4.56738 6.45215 4.56738 6.35254 4.50684 6.29199L3.72949 5.51465C3.70013 5.48557 3.66047 5.46926 3.61914 5.46926C3.57781 5.46926 3.53816 5.48557 3.50879 5.51465L1.23926 7.78418C-0.413086 9.43652 -0.413086 12.1104 1.23926 13.7607C2.8916 15.4111 5.56543 15.4131 7.21582 13.7607L9.48535 11.4912C9.5459 11.4307 9.5459 11.3311 9.48535 11.2705L8.71191 10.4971ZM13.7627 1.23926C12.1104 -0.413086 9.43652 -0.413086 7.78613 1.23926L5.51465 3.50879C5.48557 3.53816 5.46926 3.57781 5.46926 3.61914C5.46926 3.66047 5.48557 3.70013 5.51465 3.72949L6.29004 4.50488C6.35059 4.56543 6.4502 4.56543 6.51074 4.50488L8.78027 2.23535C9.83105 1.18457 11.6045 1.07324 12.7646 2.23535C13.9268 3.39746 13.8154 5.16895 12.7646 6.21973L10.4951 8.48926C10.466 8.51862 10.4497 8.55828 10.4497 8.59961C10.4497 8.64094 10.466 8.6806 10.4951 8.70996L11.2725 9.48731C11.333 9.54785 11.4326 9.54785 11.4932 9.48731L13.7627 7.21777C15.4131 5.56543 15.4131 2.8916 13.7627 1.23926ZM9.41699 4.77246C9.38763 4.74338 9.34797 4.72707 9.30664 4.72707C9.26531 4.72707 9.22566 4.74338 9.19629 4.77246L4.77246 9.19434C4.74338 9.2237 4.72707 9.26336 4.72707 9.30469C4.72707 9.34601 4.74338 9.38567 4.77246 9.41504L5.5459 10.1885C5.60645 10.249 5.70606 10.249 5.7666 10.1885L10.1885 5.7666C10.249 5.70606 10.249 5.60645 10.1885 5.5459L9.41699 4.77246Z" fill="#12C2E9"/>
</svg>
