<svg width="20" height="20" viewBox="0 0 20 20" fill="none" xmlns="http://www.w3.org/2000/svg">
<path d="M3.10269 0.210938C2.52767 0.210938 1.9762 0.443544 1.5696 0.857585C1.163 1.27163 0.93457 1.83319 0.93457 2.41873C0.93457 3.00427 1.163 3.56583 1.5696 3.97987C1.9762 4.39392 2.52767 4.62652 3.10269 4.62652C3.67771 4.62652 4.22918 4.39392 4.63578 3.97987C5.04238 3.56583 5.2708 3.00427 5.2708 2.41873C5.2708 1.83319 5.04238 1.27163 4.63578 0.857585C4.22918 0.443544 3.67771 0.210938 3.10269 0.210938ZM1.06211 6.4447C1.02828 6.4447 0.995842 6.45839 0.971925 6.48274C0.948007 6.5071 0.93457 6.54013 0.93457 6.57457V20.0811C0.93457 20.1528 0.991707 20.2109 1.06211 20.2109H5.14327C5.17709 20.2109 5.20953 20.1973 5.23345 20.1729C5.25737 20.1485 5.2708 20.1155 5.2708 20.0811V6.57457C5.2708 6.54013 5.25737 6.5071 5.23345 6.48274C5.20953 6.45839 5.17709 6.4447 5.14327 6.4447H1.06211ZM7.69399 6.4447C7.66017 6.4447 7.62773 6.45839 7.60381 6.48274C7.57989 6.5071 7.56645 6.54013 7.56645 6.57457V20.0811C7.56645 20.1528 7.62359 20.2109 7.69399 20.2109H11.7752C11.809 20.2109 11.8414 20.1973 11.8653 20.1729C11.8892 20.1485 11.9027 20.1155 11.9027 20.0811V12.8083C11.9027 12.2917 12.1042 11.7962 12.463 11.4309C12.8218 11.0655 13.3084 10.8603 13.8157 10.8603C14.3231 10.8603 14.8097 11.0655 15.1685 11.4309C15.5272 11.7962 15.7288 12.2917 15.7288 12.8083V20.0811C15.7288 20.1528 15.7859 20.2109 15.8563 20.2109H19.9375C19.9713 20.2109 20.0037 20.1973 20.0277 20.1729C20.0516 20.1485 20.065 20.1155 20.065 20.0811V11.1252C20.065 8.60367 17.9122 6.63172 15.4482 6.85925C14.6859 6.93046 13.9392 7.12256 13.2352 7.4286L11.9027 8.01042V6.57457C11.9027 6.54013 11.8892 6.5071 11.8653 6.48274C11.8414 6.45839 11.809 6.4447 11.7752 6.4447H7.69399Z" fill="#12C2E9"/>
</svg>
