<svg width="15" height="22" viewBox="0 0 15 22" fill="none" xmlns="http://www.w3.org/2000/svg">
<path d="M11.0002 4.5C11.0002 2.567 9.43324 1 7.50024 1C5.56725 1 4.00024 2.567 4.00024 4.5V9.5C4.00024 11.433 5.56725 13 7.50024 13C9.43324 13 11.0002 11.433 11.0002 9.5V4.5Z" stroke="white" stroke-width="1.5" stroke-linecap="round" stroke-linejoin="round"/>
<path d="M14 9.5C14 11.2239 13.3152 12.8772 12.0962 14.0962C10.8772 15.3152 9.2239 16 7.5 16C5.77609 16 4.12279 15.3152 2.9038 14.0962C1.68482 12.8772 1 11.2239 1 9.5" stroke="white" stroke-width="1.5" stroke-linecap="round" stroke-linejoin="round"/>
<path d="M7.5 16V21" stroke="white" stroke-width="1.5" stroke-linecap="round" stroke-linejoin="round"/>
<path d="M6.50024 4.00006H8.50024" stroke="white" stroke-width="1.5" stroke-linecap="round" stroke-linejoin="round"/>
<path d="M6.50024 7H8.50024" stroke="white" stroke-width="1.5" stroke-linecap="round" stroke-linejoin="round"/>
</svg>
