<svg width="16" height="16" viewBox="0 0 16 16" fill="none" xmlns="http://www.w3.org/2000/svg">
<path d="M6.01592 6.89497C7.59878 6.89497 8.88195 5.57534 8.88195 3.94748C8.88195 2.31963 7.59878 1 6.01592 1C4.43306 1 3.1499 2.31963 3.1499 3.94748C3.1499 5.57534 4.43306 6.89497 6.01592 6.89497Z" stroke="white" stroke-width="0.8"/>
<path opacity="0.5" d="M8.52295 2.7253C8.77834 2.32967 9.15083 2.02911 9.58529 1.86811C10.0198 1.7071 10.4931 1.69422 10.9352 1.83135C11.3774 1.96849 11.7648 2.24836 12.0402 2.62953C12.3156 3.01071 12.4643 3.47293 12.4643 3.94777C12.4643 4.4226 12.3156 4.88482 12.0402 5.266C11.7648 5.64717 11.3774 5.92704 10.9352 6.06418C10.4931 6.20132 10.0198 6.18843 9.58529 6.02743C9.15083 5.86642 8.77834 5.56586 8.52295 5.17024" stroke="white" stroke-width="0.8"/>
<path d="M6.01485 15.0001C8.78447 15.0001 11.0297 13.6805 11.0297 12.0526C11.0297 10.4248 8.78447 9.10513 6.01485 9.10513C3.24522 9.10513 1 10.4248 1 12.0526C1 13.6805 3.24522 15.0001 6.01485 15.0001Z" stroke="white" stroke-width="0.8"/>
<path opacity="0.5" d="M12.4651 9.84229C13.7234 10.126 14.6173 10.8437 14.6173 11.6845C14.6173 12.4434 13.8898 13.1015 12.8238 13.4308" stroke="white" stroke-width="0.8" stroke-linecap="round"/>
</svg>
