<svg width="21" height="21" viewBox="0 0 21 21" fill="none" xmlns="http://www.w3.org/2000/svg">
<path fill-rule="evenodd" clip-rule="evenodd" d="M2.48612 3.06033C2.48812 3.06033 2.43812 3.11233 2.37512 3.17433C2.13312 3.40933 1.63212 3.89833 1.62707 4.92133C1.61912 6.35233 2.56012 9.00933 7.09112 13.5393C11.6011 18.0473 14.2541 18.9993 15.6881 18.9993H15.7091C16.7321 18.9943 17.2201 18.4923 17.4561 18.2513C17.5281 18.1773 17.5861 18.1233 17.6271 18.0893C18.6231 17.0873 19.1331 16.3413 19.1282 15.8633C19.1211 15.3753 18.5141 14.7983 17.6751 14.0003C17.4081 13.7463 17.1181 13.4703 16.8121 13.1643C16.0191 12.3733 15.6261 12.5083 14.7621 12.8123C13.5671 13.2313 11.9271 13.8013 9.37912 11.2523C6.82712 8.70233 7.39812 7.06433 7.81612 5.86933C8.11812 5.00533 8.25612 4.61133 7.46212 3.81733C7.15112 3.50733 6.87212 3.21333 6.61512 2.94333C5.82212 2.10933 5.25012 1.50633 4.76512 1.49933H4.75712C4.27812 1.49933 3.53412 2.01133 2.48112 3.06433C2.48412 3.06133 2.48612 3.06033 2.48612 3.06033ZM15.6891 20.4993C13.1971 20.4993 9.94812 18.5153 6.03112 14.6003C2.09912 10.6693 0.112121 7.41033 0.127036 4.91333C0.136121 3.26333 1.00112 2.41833 1.32612 2.10133C1.34312 2.08033 1.40112 2.02333 1.42112 2.00333C2.85512 0.568326 3.82212 -0.0116741 4.78412 -0.000827425C5.90112 0.0143259 6.69612 0.850326 7.70212 1.90933C7.95112 2.17133 8.22112 2.45633 8.52212 2.75633C9.98212 4.21633 9.56612 5.40733 9.23212 6.36333C8.86812 7.40633 8.55312 8.30633 10.4391 10.1923C12.3271 12.0783 13.2271 11.7633 14.2661 11.3963C15.2231 11.0623 16.4111 10.6443 17.8731 12.1043C18.1691 12.4003 18.4501 12.6673 18.7091 12.9143C19.7731 13.9253 20.6131 14.7243 20.6273 15.8443C20.6391 16.7993 20.0591 17.7723 18.6271 19.2053L17.9931 18.7753L18.5291 19.2993C18.2121 19.6243 17.3681 20.4903 15.7171 20.4993H15.6891Z" fill="white"/>
</svg>
