<svg width="12" height="15" viewBox="0 0 12 15" fill="none" xmlns="http://www.w3.org/2000/svg">
<path d="M5.9471 6.03217C7.31316 6.03217 8.42057 4.90568 8.42057 3.51608C8.42057 2.12649 7.31316 1 5.9471 1C4.58103 1 3.47362 2.12649 3.47362 3.51608C3.47362 4.90568 4.58103 6.03217 5.9471 6.03217Z" stroke="#12C2E9" stroke-width="0.8"/>
<path d="M10.8912 11.3341C10.892 11.2309 10.8924 11.1261 10.8924 11.0196C10.8924 9.45644 8.67775 8.18896 5.94617 8.18896C3.21459 8.18896 0.999893 9.45644 0.999893 11.0196C0.999893 12.5827 0.999893 13.8502 5.94617 13.8502C7.32556 13.8502 8.32038 13.7514 9.03759 13.5753" stroke="#12C2E9" stroke-width="0.8" stroke-linecap="round"/>
</svg>
