<svg width="16" height="27" viewBox="0 0 16 27" fill="none" xmlns="http://www.w3.org/2000/svg">
<path d="M12.8913 1.0625H3.10872C1.9081 1.0625 0.934814 2.03579 0.934814 3.2364V23.8885C0.934814 25.0891 1.9081 26.0624 3.10872 26.0624H12.8913C14.0919 26.0624 15.0652 25.0891 15.0652 23.8885V3.2364C15.0652 2.03579 14.0919 1.0625 12.8913 1.0625Z" stroke="white" stroke-width="1.6" stroke-linecap="round" stroke-linejoin="round"/>
<path d="M11.5605 1.0625V2.48675C11.5605 2.86449 11.4104 3.22675 11.1433 3.49385C10.8762 3.76095 10.5139 3.911 10.1362 3.911H5.86346C5.48573 3.911 5.12346 3.76095 4.85636 3.49385C4.58926 3.22675 4.43921 2.86449 4.43921 2.48675V1.0625" stroke="white" stroke-width="1.6" stroke-linecap="round" stroke-linejoin="round"/>
</svg>
