<svg width="20" height="20" viewBox="0 0 20 20" fill="none" xmlns="http://www.w3.org/2000/svg">
<path d="M9.16659 0.835938H9.99992C15.0624 0.835938 19.1666 4.9401 19.1666 10.0026C19.1666 15.0651 15.0624 19.1693 9.99992 19.1693C4.93742 19.1693 0.833252 15.0651 0.833252 10.0026V9.16927H2.49992V10.0026C2.49992 11.486 2.93979 12.936 3.7639 14.1694C4.58801 15.4028 5.75935 16.364 7.12979 16.9317C8.50024 17.4994 10.0082 17.6479 11.4631 17.3585C12.918 17.0691 14.2543 16.3548 15.3032 15.3059C16.3521 14.257 17.0664 12.9206 17.3558 11.4658C17.6452 10.0109 17.4967 8.50292 16.929 7.13248C16.3614 5.76203 15.4001 4.59069 14.1667 3.76658C12.9333 2.94247 11.4833 2.5026 9.99992 2.5026H9.16659V0.835938Z" fill="url(#paint0_linear_965_2127)"/>
<defs>
<linearGradient id="paint0_linear_965_2127" x1="10" y1="-1" x2="1" y2="8" gradientUnits="userSpaceOnUse">
<stop stop-color="white"/>
<stop offset="1" stop-color="white" stop-opacity="0.3"/>
</linearGradient>
</defs>
</svg>
