<svg width="22" height="22" viewBox="0 0 22 22" fill="none" xmlns="http://www.w3.org/2000/svg">
<path d="M11.1381 1.76202L1.75499 11.1451C1.51565 11.3842 1.32577 11.6681 1.19623 11.9806C1.06668 12.2931 1 12.6281 1 12.9664C1 13.3047 1.06668 13.6397 1.19623 13.9522C1.32577 14.2647 1.51565 14.5486 1.75499 14.7877L7.21237 20.245C7.45145 20.4844 7.73535 20.6742 8.04786 20.8038C8.36037 20.9333 8.69535 21 9.03364 21C9.37194 21 9.70691 20.9333 10.0194 20.8038C10.3319 20.6742 10.6158 20.4844 10.8549 20.245L20.238 10.8619C20.5134 10.589 20.7235 10.2574 20.8528 9.89192C20.982 9.52641 21.0271 9.13642 20.9845 8.75107L20.4311 3.83428C20.365 3.25626 20.1051 2.71766 19.6937 2.30628C19.2824 1.8949 18.7438 1.635 18.1657 1.56895L13.249 1.01549C12.8636 0.972939 12.4736 1.01798 12.1081 1.14724C11.7426 1.27651 11.411 1.48666 11.1381 1.76202Z" stroke="white" stroke-width="1.5" stroke-linecap="round" stroke-linejoin="round"/>
<path d="M14.4976 10.0768C15.9193 10.0768 17.0718 8.92423 17.0718 7.50252C17.0718 6.08081 15.9193 4.92828 14.4976 4.92828C13.0759 4.92828 11.9233 6.08081 11.9233 7.50252C11.9233 8.92423 13.0759 10.0768 14.4976 10.0768Z" stroke="white" stroke-width="1.5" stroke-linecap="round" stroke-linejoin="round"/>
</svg>
