<svg width="20" height="18" viewBox="0 0 20 18" fill="none" xmlns="http://www.w3.org/2000/svg">
<path d="M7.91795 1.74646L1.01795 13.7465C0.8425 14.0503 0.75009 14.395 0.75 14.7459C0.74991 15.0968 0.842143 15.4416 1.01744 15.7456C1.19273 16.0495 1.44492 16.3021 1.74867 16.4777C2.05242 16.6534 2.39705 16.7461 2.74795 16.7465H16.5479C16.8988 16.7461 17.2435 16.6534 17.5472 16.4777C17.851 16.3021 18.1032 16.0495 18.2785 15.7456C18.4538 15.4416 18.546 15.0968 18.5459 14.7459C18.5458 14.395 18.4534 14.0503 18.2779 13.7465L11.3779 1.74646C11.2021 1.44338 10.9498 1.19181 10.6462 1.01693C10.3426 0.842047 9.99833 0.75 9.64795 0.75C9.29757 0.75 8.95334 0.842047 8.64972 1.01693C8.34611 1.19181 8.09376 1.44338 7.91795 1.74646Z" stroke="#E0D380" stroke-width="1.5" stroke-linecap="round" stroke-linejoin="round"/>
<path d="M9.64795 4.24609V10.5461" stroke="#E0D380" stroke-width="1.5" stroke-linecap="round" stroke-linejoin="round"/>
<path d="M9.64893 13.2461L9.64793 13.2461" stroke="#E0D380" stroke-width="1.5" stroke-linecap="round" stroke-linejoin="round"/>
</svg>
